<svg width="24" height="24" viewBox="0 0 24 24" fill="none" xmlns="http://www.w3.org/2000/svg">
<path d="M12 16.55C11.8667 16.55 11.7377 16.525 11.613 16.475C11.4877 16.425 11.3833 16.3583 11.3 16.275L6.69999 11.675C6.51665 11.4917 6.42499 11.2583 6.42499 10.975C6.42499 10.6917 6.51665 10.4583 6.69999 10.275C6.88332 10.0917 7.11665 10 7.39999 10C7.68332 10 7.91665 10.0917 8.09999 10.275L12 14.175L15.9 10.275C16.0833 10.0917 16.3167 10 16.6 10C16.8833 10 17.1167 10.0917 17.3 10.275C17.4833 10.4583 17.575 10.6917 17.575 10.975C17.575 11.2583 17.4833 11.4917 17.3 11.675L12.7 16.275C12.6 16.375 12.4917 16.4457 12.375 16.487C12.2583 16.529 12.1333 16.55 12 16.55Z" fill="white"/>
</svg>
