<svg width="250" height="233" viewBox="0 0 250 233" fill="none" xmlns="http://www.w3.org/2000/svg">
<g clip-path="url(#clip0_1_882)">
<path d="M35.2933 182.594C37.9451 182.594 40.0948 180.434 40.0948 177.77C40.0948 175.106 37.9451 172.947 35.2933 172.947C32.6414 172.947 30.4917 175.106 30.4917 177.77C30.4917 180.434 32.6414 182.594 35.2933 182.594Z" fill="#63A4E5"/>
<path d="M243.849 105.761C247.246 105.761 250 102.995 250 99.5821C250 96.1694 247.246 93.403 243.849 93.403C240.452 93.403 237.698 96.1694 237.698 99.5821C237.698 102.995 240.452 105.761 243.849 105.761Z" fill="#63A4E5"/>
<path d="M130.937 204.516C184.784 204.516 228.435 160.665 228.435 106.573C228.435 52.4802 184.784 8.62952 130.937 8.62952C77.0903 8.62952 33.4388 52.4802 33.4388 106.573C33.4388 160.665 77.0903 204.516 130.937 204.516Z" fill="#ECF3FE"/>
<path opacity="0.1" d="M224.295 195.016C224.295 195.008 224.296 195 224.296 194.993C224.294 194.983 224.296 194.969 224.293 194.959C224.293 194.89 224.292 194.817 224.286 194.748C224.28 194.676 224.278 194.602 224.267 194.531C224.265 194.502 224.264 194.473 224.261 194.438C224.257 194.42 224.257 194.4 224.253 194.381C224.247 194.333 224.242 194.286 224.232 194.243C224.226 194.195 224.22 194.147 224.21 194.1C224.192 193.996 224.174 193.896 224.152 193.798L224.096 193.544L223.909 192.702L206.142 112.764C206.12 112.665 206.093 112.563 206.066 112.465C206.051 112.394 206.03 112.321 206.004 112.252C205.981 112.169 205.952 112.087 205.919 112.005C205.894 111.936 205.869 111.868 205.839 111.801C205.814 111.733 205.785 111.671 205.756 111.603C205.717 111.518 205.68 111.438 205.636 111.354C205.55 111.186 205.459 111.019 205.355 110.86C205.354 110.855 205.348 110.851 205.347 110.847C205.281 110.748 205.215 110.649 205.145 110.557C204.896 110.209 204.61 109.893 204.293 109.615C204.219 109.547 204.141 109.481 204.058 109.416C203.878 109.27 203.692 109.138 203.498 109.019C203.436 108.98 203.372 108.939 203.306 108.904C203.221 108.854 203.137 108.805 203.043 108.761C203.032 108.755 203.015 108.748 203 108.742L202.65 108.579C202.65 108.579 202.649 108.574 202.645 108.58L193.68 104.453L180.974 47.2822C179.699 41.5504 174.041 37.9415 168.336 39.2208L55.1612 64.605C49.4555 65.8843 45.863 71.5687 47.1365 77.3005L59.8426 134.468L53.4713 142.039L53.2231 142.335C53.2116 142.348 53.1991 142.361 53.1923 142.372C52.5479 143.202 52.1266 144.198 51.9891 145.259C51.9025 145.929 51.9294 146.623 52.0833 147.318L69.9921 227.893L70.0373 228.098L70.0931 228.352C70.1267 228.503 70.1633 228.647 70.2104 228.789C70.22 228.823 70.2316 228.856 70.2412 228.889C70.2489 228.914 70.2566 228.939 70.2643 228.963C70.2691 228.978 70.2729 228.991 70.2777 229.006C70.2777 229.006 70.2777 229.007 70.2777 229.008C70.2825 229.022 70.2893 229.035 70.2941 229.048C70.3229 229.134 70.3556 229.222 70.3874 229.306C70.3951 229.319 70.3999 229.338 70.4066 229.351C70.421 229.383 70.4364 229.415 70.4499 229.447C70.4653 229.482 70.4807 229.516 70.4961 229.55C70.5038 229.568 70.5115 229.585 70.5201 229.604C70.5268 229.619 70.5355 229.636 70.5422 229.651C70.5855 229.741 70.6317 229.831 70.6788 229.921C70.6894 229.939 70.7 229.955 70.7106 229.974C70.7317 230.01 70.7529 230.047 70.775 230.084C70.7981 230.124 70.8202 230.166 70.8452 230.204C70.9039 230.295 70.9645 230.389 71.0232 230.474C71.0251 230.477 71.028 230.48 71.0309 230.484C71.0732 230.544 71.1193 230.599 71.1636 230.657C71.1828 230.682 71.1992 230.711 71.2184 230.735C71.2742 230.811 71.3406 230.886 71.4012 230.96C71.4108 230.971 71.4214 230.982 71.431 230.992C71.4445 231.008 71.4598 231.023 71.4743 231.039C71.5137 231.082 71.5512 231.126 71.5945 231.168C71.6118 231.185 71.6311 231.199 71.6484 231.216C71.7224 231.292 71.7955 231.366 71.8734 231.438C71.8898 231.452 71.9033 231.469 71.9206 231.484C71.9975 231.555 72.0793 231.62 72.161 231.684C72.2005 231.716 72.2409 231.749 72.2813 231.78C72.3399 231.825 72.3996 231.87 72.4573 231.91C72.4813 231.928 72.5083 231.94 72.5323 231.956C72.6449 232.034 72.7603 232.106 72.8776 232.176C72.9151 232.198 72.9517 232.219 72.9892 232.242C73.0373 232.269 73.0835 232.297 73.1315 232.322C73.323 232.422 73.5192 232.514 73.7212 232.592C73.7548 232.606 73.7895 232.615 73.8231 232.628C73.8731 232.646 73.9232 232.667 73.9732 232.683C74.053 232.71 74.1319 232.736 74.2117 232.763C74.2656 232.778 74.3204 232.788 74.3743 232.802C74.4349 232.817 74.4955 232.832 74.557 232.845C74.6166 232.859 74.6753 232.873 74.7359 232.885C74.8321 232.903 74.9293 232.916 75.0274 232.93C75.0437 232.932 75.0601 232.936 75.0774 232.938C75.1139 232.943 75.1495 232.954 75.187 232.958C75.2342 232.962 75.2842 232.967 75.3332 232.971C75.3582 232.973 75.3832 232.976 75.4073 232.978C75.4121 232.978 75.4169 232.979 75.4217 232.979C75.5468 232.99 75.6699 232.992 75.793 232.994C75.8276 232.996 75.8584 232.999 75.8921 232.996C75.9075 232.996 75.9248 232.994 75.9402 232.994C75.9632 232.994 75.9863 232.992 76.0094 232.991C76.0854 232.99 76.1614 232.99 76.2374 232.983C76.2422 232.983 76.2489 232.982 76.2547 232.982C76.2739 232.981 76.2922 232.979 76.3114 232.977C76.3336 232.975 76.3547 232.974 76.3768 232.971C76.423 232.969 76.4682 232.961 76.5134 232.957C76.5336 232.955 76.5538 232.953 76.574 232.951C76.5894 232.949 76.6058 232.949 76.6211 232.946C76.6923 232.934 76.7683 232.923 76.8395 232.912C76.9434 232.894 77.0472 232.875 77.1502 232.852L219.347 200.958L219.664 200.887C219.767 200.864 219.869 200.836 219.97 200.809C220.039 200.788 220.113 200.767 220.182 200.746C220.205 200.741 220.222 200.731 220.241 200.727C220.273 200.715 220.309 200.702 220.341 200.691C220.359 200.687 220.378 200.677 220.396 200.673C220.436 200.659 220.473 200.646 220.51 200.633C220.513 200.627 220.517 200.626 220.527 200.624C220.571 200.605 220.621 200.584 220.665 200.563C220.702 200.55 220.742 200.536 220.778 200.518C220.785 200.515 220.792 200.511 220.799 200.508C220.8 200.508 220.801 200.507 220.802 200.507C220.852 200.483 220.902 200.459 220.951 200.436C221.062 200.382 221.172 200.326 221.281 200.263C221.285 200.261 221.288 200.258 221.292 200.256C221.318 200.241 221.343 200.225 221.369 200.21C221.402 200.19 221.436 200.171 221.468 200.152C221.485 200.143 221.507 200.128 221.524 200.119C221.543 200.11 221.554 200.097 221.571 200.089C221.598 200.072 221.62 200.049 221.645 200.032C221.872 199.88 222.09 199.717 222.293 199.537C222.298 199.532 222.304 199.529 222.309 199.525C222.343 199.497 222.375 199.466 222.407 199.434C222.441 199.407 222.469 199.381 222.497 199.35C222.533 199.317 222.569 199.279 222.604 199.241C222.619 199.228 222.635 199.21 222.651 199.192C222.667 199.175 222.682 199.157 222.699 199.14C222.755 199.081 222.808 199.019 222.862 198.962C222.869 198.951 222.877 198.94 222.885 198.932C222.92 198.892 222.952 198.846 222.986 198.804C223.017 198.765 223.048 198.726 223.078 198.687C223.088 198.672 223.1 198.659 223.11 198.644C223.118 198.633 223.13 198.62 223.137 198.609C223.167 198.568 223.197 198.526 223.223 198.486C223.251 198.455 223.272 198.421 223.294 198.386C223.312 198.357 223.33 198.33 223.347 198.302C223.366 198.271 223.385 198.24 223.404 198.209C223.441 198.15 223.48 198.09 223.513 198.027C223.549 197.966 223.583 197.9 223.617 197.834C223.637 197.797 223.656 197.759 223.674 197.721C223.725 197.621 223.771 197.52 223.819 197.417C223.834 197.373 223.853 197.329 223.871 197.283C223.883 197.255 223.892 197.226 223.903 197.198C223.93 197.128 223.957 197.059 223.979 196.987C223.999 196.944 224.008 196.897 224.023 196.854C224.038 196.806 224.052 196.764 224.066 196.716C224.081 196.668 224.093 196.616 224.104 196.575C224.142 196.437 224.169 196.294 224.197 196.154C224.195 196.145 224.201 196.129 224.203 196.114C224.208 196.068 224.217 196.022 224.225 195.971C224.234 195.919 224.241 195.863 224.248 195.808C224.251 195.803 224.25 195.798 224.249 195.793C224.256 195.747 224.258 195.701 224.262 195.655C224.266 195.612 224.27 195.57 224.274 195.527C224.275 195.506 224.278 195.487 224.28 195.465C224.283 195.455 224.284 195.44 224.282 195.431C224.283 195.372 224.289 195.306 224.289 195.241C224.291 195.206 224.293 195.172 224.29 195.138C224.293 195.118 224.29 195.098 224.288 195.079C224.288 195.057 224.291 195.035 224.29 195.013L224.295 195.016Z" fill="#232323"/>
<path d="M211.123 104.07L229.134 185.105C229.156 185.204 229.173 185.303 229.191 185.408C229.202 185.455 229.208 185.502 229.213 185.551C229.223 185.593 229.229 185.64 229.235 185.689C229.238 185.707 229.238 185.727 229.242 185.746C229.245 185.78 229.246 185.809 229.248 185.838C229.259 185.91 229.261 185.983 229.267 186.056C229.273 186.124 229.274 186.197 229.275 186.267C229.278 186.3 229.275 186.335 229.273 186.371C229.278 186.394 229.28 186.423 229.276 186.449C229.279 186.483 229.276 186.518 229.275 186.553C229.275 186.616 229.269 186.682 229.268 186.741C229.27 186.751 229.268 186.765 229.266 186.776C229.257 186.887 229.252 186.996 229.236 187.103C229.237 187.108 229.237 187.113 229.235 187.119C229.227 187.175 229.22 187.231 229.212 187.281C229.203 187.332 229.194 187.379 229.189 187.424C229.187 187.44 229.182 187.455 229.184 187.465C229.156 187.604 229.129 187.748 229.09 187.885C229.08 187.927 229.067 187.979 229.053 188.026C229.038 188.073 229.024 188.116 229.01 188.164C228.994 188.207 228.985 188.253 228.965 188.298C228.936 188.387 228.903 188.479 228.868 188.566C228.847 188.625 228.824 188.674 228.806 188.728C228.749 188.848 228.697 188.968 228.635 189.086C228.591 189.175 228.546 189.259 228.5 189.338C228.455 189.422 228.404 189.502 228.353 189.583C228.332 189.622 228.305 189.657 228.28 189.698C228.258 189.732 228.237 189.766 228.209 189.797C228.184 189.838 228.153 189.878 228.124 189.92C228.116 189.931 228.104 189.944 228.097 189.956C228.026 190.055 227.949 190.152 227.871 190.243C227.862 190.249 227.855 190.261 227.848 190.273C227.784 190.341 227.722 190.414 227.654 190.483C227.63 190.508 227.611 190.532 227.591 190.552C227.555 190.59 227.52 190.627 227.482 190.66C227.454 190.691 227.426 190.717 227.393 190.744C227.361 190.776 227.328 190.808 227.296 190.835C227.068 191.044 226.819 191.232 226.558 191.399C226.54 191.408 226.528 191.42 226.511 191.429C226.493 191.438 226.472 191.452 226.454 191.462C226.393 191.5 226.334 191.538 226.267 191.573C226.159 191.637 226.048 191.691 225.937 191.746C225.88 191.774 225.822 191.801 225.764 191.829C225.729 191.847 225.688 191.861 225.652 191.874C225.607 191.894 225.557 191.914 225.513 191.935C225.504 191.936 225.499 191.937 225.496 191.943C225.459 191.956 225.423 191.969 225.382 191.984C225.364 191.988 225.346 191.997 225.328 192.001C225.296 192.013 225.259 192.026 225.228 192.038C225.209 192.042 225.191 192.051 225.168 192.056C225.099 192.077 225.025 192.098 224.956 192.119C224.854 192.147 224.752 192.174 224.65 192.197L82.1355 224.162C82.0326 224.185 81.9287 224.203 81.8249 224.222C81.7537 224.233 81.6777 224.245 81.6065 224.255C81.5257 224.269 81.444 224.277 81.3622 224.28C81.3141 224.286 81.267 224.292 81.2227 224.292C81.1073 224.303 80.99 224.305 80.8774 224.306C80.8438 224.309 80.8139 224.306 80.7784 224.303C80.6552 224.301 80.5321 224.299 80.4071 224.287C80.3321 224.28 80.2618 224.276 80.1916 224.267C79.855 224.229 79.5203 224.161 79.1961 224.071C79.1163 224.045 79.0374 224.018 78.9576 223.992C78.8681 223.963 78.7767 223.929 78.6902 223.894C78.1573 223.683 77.6629 223.4 77.2118 223.048C77.106 222.967 77.0031 222.882 76.905 222.792C76.5683 222.492 76.2682 222.156 76.0085 221.78C75.9499 221.695 75.8902 221.599 75.8306 221.509C75.771 221.419 75.72 221.322 75.6642 221.226C75.6132 221.13 75.5622 221.032 75.5161 220.934C75.4709 220.841 75.4314 220.752 75.391 220.657C75.3833 220.645 75.3795 220.625 75.3708 220.613C75.3362 220.522 75.2996 220.426 75.2698 220.334C75.2641 220.33 75.2621 220.322 75.2602 220.312C75.2342 220.239 75.214 220.17 75.1929 220.096C75.1467 219.954 75.1092 219.809 75.0765 219.659L57.0658 138.624C56.9109 137.929 56.885 137.235 56.9715 136.566C57.1091 135.505 57.5304 134.509 58.1748 133.679C58.1825 133.667 58.1941 133.655 58.2056 133.642L58.4537 133.345C59.2434 132.463 60.3063 131.811 61.549 131.533L204.064 99.5684C204.204 99.5365 204.341 99.5114 204.479 99.4949C204.502 99.4853 204.53 99.4833 204.555 99.4824C204.688 99.4621 204.827 99.4466 204.957 99.437C204.986 99.435 205.02 99.4331 205.05 99.4312C205.166 99.4244 205.283 99.4234 205.397 99.4273C205.426 99.4254 205.455 99.4244 205.486 99.4273C205.628 99.4292 205.767 99.4379 205.908 99.4505C206.038 99.4611 206.174 99.4795 206.301 99.4998C206.484 99.5278 206.666 99.5713 206.843 99.6196C206.941 99.6418 207.04 99.6689 207.136 99.7017C207.304 99.7529 207.47 99.8138 207.628 99.8872C207.632 99.8814 207.633 99.8863 207.633 99.8863L207.983 100.05C208 100.056 208.016 100.062 208.027 100.069C208.12 100.112 208.205 100.163 208.289 100.212C208.356 100.247 208.419 100.286 208.482 100.327C208.675 100.446 208.861 100.577 209.041 100.724C209.123 100.789 209.202 100.855 209.276 100.922C209.594 101.2 209.879 101.516 210.128 101.864C210.198 101.957 210.264 102.055 210.33 102.154C210.331 102.159 210.337 102.163 210.338 102.167C210.442 102.326 210.533 102.492 210.62 102.66C210.663 102.744 210.701 102.825 210.739 102.91C210.769 102.977 210.798 103.039 210.823 103.108C210.853 103.175 210.878 103.243 210.903 103.312C210.935 103.393 210.963 103.475 210.987 103.559C211.012 103.628 211.033 103.701 211.049 103.772C211.076 103.869 211.103 103.972 211.125 104.07H211.123Z" fill="#F9C067"/>
<path d="M210.337 102.167L56.9716 136.565C57.1091 135.504 57.5304 134.508 58.1748 133.678C58.1825 133.666 58.1941 133.654 58.2056 133.641L58.4538 133.344L117.465 63.2251C119.2 61.1603 122.092 60.5119 124.536 61.6395L207.628 99.8863C207.631 99.8805 207.632 99.8854 207.632 99.8854L207.982 100.049C207.999 100.055 208.015 100.061 208.026 100.068C208.119 100.111 208.204 100.162 208.288 100.211C208.355 100.246 208.418 100.285 208.481 100.326C208.674 100.445 208.86 100.576 209.04 100.723C209.122 100.788 209.201 100.855 209.275 100.921C209.593 101.199 209.878 101.515 210.127 101.863C210.197 101.956 210.263 102.055 210.329 102.153C210.33 102.158 210.336 102.162 210.337 102.166V102.167Z" fill="#A36017"/>
<path d="M60.1445 55.9065L173.317 30.5148C179.019 29.2355 184.682 32.847 185.955 38.5748L213.077 160.564L79.2429 190.592L52.1211 68.6022C50.8477 62.8743 54.4427 57.1858 60.1445 55.9065Z" fill="white"/>
<path d="M76.1597 92.922L174.5 70.8579C175.883 70.5477 177.257 71.4237 177.566 72.8127L177.803 73.883C178.112 75.2721 177.24 76.6509 175.858 76.9609L77.5166 99.0251C76.1338 99.3354 74.7613 98.4592 74.4527 97.0711L74.2147 96.0008C73.9059 94.6117 74.7781 93.2329 76.1599 92.9229L76.1597 92.922Z" fill="#E4ECF9"/>
<path d="M79.0584 105.959L177.399 83.8953C178.782 83.5851 180.155 84.461 180.464 85.8501L180.702 86.9194C181.011 88.3085 180.139 89.6882 178.756 89.9985L80.4153 112.062C79.0325 112.373 77.66 111.497 77.3514 110.108L77.1134 109.038C76.8046 107.649 77.6768 106.27 79.0586 105.96L79.0584 105.959Z" fill="#E4ECF9"/>
<path d="M180.298 96.9317L81.9562 118.996C80.573 119.306 79.7021 120.684 80.011 122.074L80.249 123.144C80.5579 124.534 81.9297 125.409 83.3129 125.098L181.655 103.034C183.038 102.724 183.909 101.346 183.6 99.9561L183.362 98.8857C183.053 97.4962 181.681 96.6214 180.298 96.9317Z" fill="#E4ECF9"/>
<path d="M84.8549 132.033L183.196 109.969C184.578 109.659 185.952 110.535 186.261 111.924L186.499 112.994C186.808 114.383 185.935 115.762 184.554 116.072L86.2118 138.136C84.829 138.447 83.4565 137.57 83.1479 136.182L82.9099 135.112C82.6011 133.723 83.4731 132.343 84.8558 132.033L84.8549 132.033Z" fill="#E4ECF9"/>
<path d="M87.7545 145.071L186.095 123.007C187.478 122.696 188.851 123.572 189.159 124.961L189.397 126.031C189.706 127.42 188.834 128.8 187.451 129.11L89.1114 151.174C87.7287 151.484 86.3562 150.608 86.0475 149.22L85.8096 148.149C85.5007 146.76 86.3729 145.381 87.7547 145.071L87.7545 145.071Z" fill="#E4ECF9"/>
<path d="M113.822 59.7893L70.9327 69.4121C69.5495 69.7224 68.6787 71.1004 68.9876 72.4899L69.2256 73.5603C69.5345 74.9498 70.9062 75.8246 72.2894 75.5143L115.179 65.8915C116.562 65.5812 117.433 64.2032 117.124 62.8136L116.886 61.7433C116.577 60.3538 115.205 59.479 113.822 59.7893Z" fill="#52D1BD"/>
<path d="M143.585 164.037V164.042C143.416 164.337 143.201 164.622 142.938 164.878L82.4539 224.09L82.1365 224.162C81.5527 224.293 80.9726 224.334 80.408 224.288C80.3282 224.281 80.2484 224.275 80.1724 224.267C79.1807 224.154 78.241 223.789 77.4427 223.219C77.3676 223.166 77.2907 223.109 77.2137 223.049C76.9896 222.878 76.779 222.682 76.5808 222.476C76.5116 222.407 76.4519 222.337 76.3875 222.268C76.3269 222.192 76.2615 222.119 76.2047 222.043C75.6709 221.364 75.2766 220.561 75.0765 219.659L57.0658 138.624C56.9109 137.929 56.885 137.236 56.9715 136.566C57.1091 135.505 57.5304 134.509 58.1748 133.679C58.1825 133.667 58.1941 133.655 58.2056 133.642L58.4537 133.345C59.2434 132.463 60.3063 131.811 61.549 131.533L62.8667 131.237L69.8738 133.672L134.474 156.131L136.903 156.976L141.54 158.588C141.885 158.707 142.201 158.873 142.48 159.067V159.072C144.058 160.182 144.542 162.365 143.585 164.038V164.037Z" fill="#F4B545"/>
<path d="M211.123 104.07L229.134 185.105C229.156 185.204 229.173 185.303 229.191 185.408C229.202 185.455 229.208 185.502 229.213 185.551C229.223 185.593 229.229 185.641 229.235 185.689C229.238 185.707 229.238 185.727 229.242 185.746C229.245 185.78 229.246 185.809 229.248 185.839C229.259 185.91 229.261 185.984 229.267 186.056C229.273 186.124 229.274 186.197 229.275 186.267C229.277 186.276 229.275 186.291 229.278 186.3C229.278 186.321 229.278 186.345 229.274 186.37C229.279 186.393 229.281 186.422 229.277 186.448C229.28 186.482 229.277 186.517 229.276 186.552C229.276 186.615 229.274 186.675 229.269 186.74C229.271 186.75 229.269 186.764 229.267 186.775C229.263 186.884 229.253 186.995 229.237 187.102C229.237 187.107 229.238 187.112 229.236 187.118C229.228 187.174 229.225 187.224 229.212 187.28C229.208 187.326 229.198 187.372 229.19 187.423C229.187 187.434 229.187 187.448 229.185 187.464C229.157 187.603 229.13 187.747 229.091 187.884C229.081 187.926 229.068 187.978 229.054 188.025C229.039 188.073 229.025 188.115 229.01 188.163C228.995 188.206 228.986 188.252 228.966 188.297C228.937 188.387 228.904 188.478 228.869 188.565C228.848 188.624 228.825 188.674 228.807 188.727C228.751 188.852 228.694 188.969 228.636 189.085C228.592 189.174 228.547 189.258 228.501 189.337C228.455 189.421 228.405 189.502 228.354 189.582C228.333 189.621 228.306 189.656 228.281 189.697C228.259 189.732 228.238 189.765 228.21 189.796C228.185 189.837 228.154 189.877 228.125 189.919C228.117 189.931 228.105 189.943 228.098 189.955C228.027 190.054 227.95 190.151 227.872 190.242C227.863 190.249 227.856 190.26 227.849 190.272C227.785 190.34 227.723 190.413 227.655 190.482C227.631 190.507 227.612 190.532 227.592 190.551C227.556 190.589 227.521 190.626 227.483 190.659C227.455 190.69 227.427 190.716 227.394 190.743C227.362 190.775 227.329 190.807 227.296 190.834C227.069 191.043 226.82 191.231 226.559 191.398C226.541 191.407 226.524 191.421 226.512 191.428C226.494 191.437 226.473 191.451 226.455 191.461C226.394 191.499 226.335 191.537 226.268 191.572C226.16 191.636 226.049 191.69 225.938 191.745C225.881 191.773 225.823 191.8 225.765 191.828C225.73 191.846 225.689 191.86 225.653 191.873C225.608 191.893 225.558 191.913 225.514 191.934L225.5 191.937C225.458 191.951 225.419 191.969 225.382 191.983C225.364 191.987 225.346 191.996 225.328 192C225.296 192.012 225.264 192.024 225.228 192.037C225.209 192.041 225.191 192.051 225.168 192.055C225.099 192.076 225.025 192.097 224.956 192.118C224.854 192.146 224.752 192.173 224.65 192.196L224.333 192.268L144.522 164.522C144.177 164.402 143.861 164.237 143.586 164.042V164.037C142.004 162.928 141.521 160.755 142.481 159.071V159.066C142.646 158.773 142.862 158.487 143.124 158.232L146.633 154.793L148.474 152.99L197.434 105.061L202.744 99.8622L204.062 99.5665C204.202 99.5347 204.339 99.5095 204.477 99.4931C204.5 99.4834 204.528 99.4815 204.553 99.4806C204.686 99.4603 204.825 99.4448 204.956 99.4351C204.984 99.4332 205.018 99.4313 205.048 99.4293C205.164 99.4226 205.282 99.4216 205.395 99.4255C205.424 99.4235 205.453 99.4226 205.484 99.4255C205.626 99.4274 205.765 99.4361 205.906 99.4487C206.036 99.4593 206.172 99.4777 206.299 99.4979C206.482 99.526 206.664 99.5694 206.841 99.6178C206.939 99.64 207.038 99.667 207.134 99.6999C207.302 99.7511 207.468 99.812 207.627 99.8854C207.63 99.8796 207.631 99.8844 207.631 99.8844L207.982 100.048C207.998 100.055 208.014 100.06 208.025 100.067C208.118 100.111 208.203 100.161 208.287 100.21C208.354 100.245 208.417 100.284 208.48 100.325C208.673 100.444 208.859 100.575 209.039 100.722C209.121 100.787 209.2 100.854 209.274 100.92C209.592 101.199 209.877 101.514 210.126 101.862C210.196 101.955 210.262 102.054 210.328 102.152C210.329 102.157 210.335 102.161 210.336 102.165C210.44 102.324 210.531 102.49 210.618 102.659C210.661 102.743 210.699 102.823 210.737 102.908C210.767 102.975 210.796 103.037 210.821 103.106C210.851 103.174 210.876 103.241 210.901 103.31C210.933 103.391 210.961 103.473 210.985 103.557C211.01 103.626 211.032 103.699 211.047 103.77C211.074 103.867 211.101 103.97 211.123 104.068V104.07Z" fill="#F4B545"/>
<path opacity="0.29" d="M228.89 184.007L229.078 184.85C229.82 188.192 227.839 191.481 224.651 192.196L82.1365 224.161C78.9499 224.876 75.7632 222.745 75.0207 219.404L74.8331 218.561L137.367 153.673C139.308 151.659 142.206 151.008 144.816 152.003L228.89 184.008V184.007Z" fill="#474747"/>
<path d="M228.954 184.297L229.134 185.105C229.845 188.306 227.838 191.482 224.651 192.197L82.1365 224.162C78.9499 224.877 75.7882 222.86 75.0765 219.659L74.8966 218.851L137.883 155.997C139.838 154.045 142.735 153.396 145.331 154.326L228.954 184.298V184.297Z" fill="#F9C067"/>
<path opacity="0.1" d="M229.953 76.8588C242.757 63.9971 242.757 43.1442 229.953 30.2825C217.15 17.4208 196.392 17.4208 183.589 30.2825C170.785 43.1442 170.785 63.9971 183.589 76.8588C196.392 89.7205 217.15 89.7205 229.953 76.8588Z" fill="#232323"/>
<path d="M211.064 81.4814C229.171 81.4814 243.849 66.7361 243.849 48.547C243.849 30.3578 229.171 15.6125 211.064 15.6125C192.958 15.6125 178.279 30.3578 178.279 48.547C178.279 66.7361 192.958 81.4814 211.064 81.4814Z" fill="#4285F4"/>
<path d="M217.764 40.4286L218.79 38.2111L224.31 39.4102L217.889 53.7792C217.488 54.6894 217.256 55.2981 217.189 55.6064C217.12 55.9281 217.146 56.1977 217.267 56.4141C217.387 56.6306 217.56 56.7639 217.783 56.8122C218.536 56.9755 219.614 56.6934 221.018 55.9648C222.423 55.2373 223.751 54.1183 225.002 52.6091C226.254 51.0998 227.096 49.3374 227.531 47.3208C227.893 45.6405 227.917 43.9892 227.602 42.3669C227.288 40.7446 226.649 39.2575 225.684 37.9048C224.721 36.552 223.424 35.3761 221.794 34.377C220.162 33.3779 218.232 32.6359 216.002 32.1508C213.729 31.657 211.582 31.5015 209.558 31.6851C207.534 31.8687 205.684 32.3605 204.009 33.1625C202.333 33.9635 200.839 35.0785 199.524 36.5086C198.366 37.7521 197.377 39.1938 196.558 40.8325C195.737 42.4722 195.133 44.195 194.744 46.0009C194.226 48.4098 194.229 50.7152 194.754 52.9183C195.279 55.1213 196.306 57.0963 197.834 58.8423C199.361 60.5893 201.354 62.0251 203.811 63.1537C206.267 64.2813 209.156 65.0292 212.476 65.3993C215.121 65.6514 217.433 65.5384 219.411 65.0591C221.389 64.5799 223.167 63.6909 224.746 62.3923L229.199 63.3605C228.151 64.7016 226.919 65.8331 225.503 66.7568C224.085 67.6805 222.509 68.3743 220.775 68.841C219.041 69.3067 217.158 69.5396 215.131 69.5386C213.103 69.5377 210.946 69.2884 208.66 68.7917C205.231 68.0468 202.24 66.924 199.689 65.4244C197.138 63.9238 195.107 62.1198 193.599 60.0115C192.091 57.9031 191.11 55.5638 190.656 52.9956C190.202 50.4273 190.282 47.7151 190.897 44.8579C191.54 41.8751 192.634 39.1966 194.182 36.8207C195.729 34.4456 197.64 32.5044 199.911 30.9971C202.183 29.4898 204.778 28.4897 207.693 27.994C210.608 27.4993 213.682 27.6027 216.917 28.3061C219.566 28.882 221.911 29.798 223.953 31.0551C225.995 32.3122 227.647 33.8408 228.908 35.6389C230.17 37.4381 231.001 39.4247 231.401 41.6007C231.801 43.7757 231.741 46.0686 231.223 48.4765C230.819 50.3529 230.088 52.1182 229.032 53.7715C227.975 55.4247 226.668 56.8345 225.112 57.9988C223.556 59.1631 221.844 59.9786 219.978 60.4453C218.112 60.913 216.202 60.9333 214.252 60.5091C213.123 60.2637 212.286 59.881 211.741 59.3593C211.197 58.8385 210.911 58.1341 210.882 57.249C209.41 58.1901 207.853 58.6471 206.21 58.6191C204.567 58.5921 203.072 58.1128 201.726 57.1833C200.379 56.2528 199.405 54.9677 198.802 53.327C198.199 51.6863 198.126 49.8089 198.581 47.6948C199.054 45.4966 199.991 43.4346 201.39 41.5108C202.789 39.587 204.503 38.1347 206.531 37.153C208.559 36.1723 210.667 35.9192 212.855 36.3945C215.364 36.9395 217.001 38.2855 217.764 40.4296V40.4286ZM203.984 48.8243C203.622 50.5046 203.693 51.868 204.198 52.9163C204.702 53.9638 205.518 54.6111 206.647 54.8556C207.957 55.1406 209.224 54.8653 210.447 54.0324C211.669 53.1985 212.711 52.0361 213.573 50.5452C214.434 49.0543 215.025 47.5595 215.348 46.0608C215.508 45.3188 215.565 44.6308 215.519 43.9979C215.472 43.365 215.327 42.7872 215.082 42.2645C214.837 41.7427 214.498 41.3137 214.068 40.9784C213.637 40.6431 213.115 40.4083 212.501 40.275C211.274 40.0083 210.067 40.2479 208.877 40.9939C207.687 41.7388 206.663 42.821 205.803 44.2395C204.943 45.6579 204.336 47.1856 203.983 48.8243H203.984Z" fill="#F9F9F9"/>
<path d="M47.5694 108.773C47.5492 108.773 47.5281 108.773 47.5079 108.771C45.615 108.655 43.7797 108.394 42.0522 107.993C41.5126 107.867 41.175 107.326 41.3001 106.784C41.4251 106.242 41.9686 105.907 42.5034 106.029C44.1231 106.405 45.8477 106.65 47.63 106.759C48.1831 106.793 48.6044 107.27 48.5707 107.826C48.538 108.361 48.0965 108.773 47.5704 108.773H47.5694ZM52.9135 108.721C52.3941 108.721 51.9536 108.319 51.9141 107.789C51.8718 107.235 52.2854 106.75 52.8375 106.707C54.5323 106.577 56.2752 106.335 58.018 105.989C58.5711 105.883 59.0896 106.237 59.1973 106.783C59.304 107.329 58.951 107.859 58.4076 107.967C56.5868 108.327 54.7651 108.58 52.9924 108.717C52.9664 108.719 52.9404 108.72 52.9145 108.72L52.9135 108.721ZM63.3967 106.667C62.9687 106.667 62.5715 106.389 62.4378 105.957C62.2742 105.426 62.5705 104.862 63.1005 104.697C64.7433 104.186 66.4054 103.58 68.0367 102.894C68.5513 102.679 69.1351 102.922 69.3496 103.435C69.5632 103.948 69.3227 104.539 68.811 104.754C67.1191 105.464 65.3974 106.093 63.693 106.623C63.5949 106.654 63.4939 106.668 63.3967 106.668V106.667ZM37.2161 106.301C37.0756 106.301 36.9323 106.271 36.7957 106.208C35.0451 105.395 33.4475 104.396 32.049 103.236C31.621 102.883 31.5604 102.247 31.9134 101.818C32.2644 101.389 32.8964 101.326 33.3254 101.682C34.5912 102.73 36.0426 103.637 37.6373 104.378C38.1404 104.612 38.3587 105.211 38.1269 105.717C37.9567 106.085 37.5941 106.302 37.2151 106.302L37.2161 106.301ZM29.1028 99.5008C28.7845 99.5008 28.4709 99.3481 28.2766 99.065C27.5802 98.0505 26.9415 96.9538 26.3904 95.8291C26.1432 95.8977 25.87 95.8706 25.6296 95.7324C24.1166 94.8677 22.593 93.8009 21.1012 92.5632C20.6731 92.2085 20.6135 91.5728 20.9665 91.1447C21.3185 90.7147 21.9514 90.6548 22.3785 91.0094C23.4567 91.9042 24.5494 92.7023 25.6382 93.3903C25.7363 93.1468 25.9297 92.9419 26.1913 92.8356C26.7049 92.6279 27.2897 92.8762 27.4975 93.3922C28.1285 94.9585 28.9691 96.5257 29.9281 97.9219C30.2426 98.3799 30.1272 99.008 29.6713 99.324C29.4972 99.4447 29.299 99.5027 29.1028 99.5027V99.5008ZM34.3497 98.3848C33.2147 98.3848 32.0182 98.2234 30.7947 97.9036C30.259 97.7635 29.9367 97.2137 30.0762 96.6745C30.2157 96.1354 30.7611 95.8117 31.2997 95.9518C33.0397 96.4059 34.6825 96.488 36.1494 96.1962C36.6947 96.0851 37.2209 96.4426 37.3286 96.9895C37.4354 97.5355 37.0833 98.0659 36.5389 98.1741C35.8368 98.3142 35.1 98.3848 34.3497 98.3848ZM41.0991 95.8426C40.8066 95.8426 40.5162 95.7141 40.318 95.4677C39.9698 95.0348 40.0372 94.4 40.4681 94.0502C41.7637 92.9989 42.8669 91.6897 43.6576 90.2625C43.9279 89.7755 44.5386 89.6016 45.0224 89.8722C45.5063 90.1437 45.6794 90.7572 45.4101 91.2433C44.4944 92.8936 43.2219 94.4058 41.7291 95.6175C41.5425 95.7682 41.3203 95.8416 41.0991 95.8416V95.8426ZM25.2025 89.5949C24.7014 89.5949 24.2676 89.218 24.208 88.7059C24.1281 88.0276 24.0868 87.3503 24.0868 86.6923C24.0868 85.4168 24.2397 84.1742 24.5398 83.0002C24.6783 82.4611 25.2266 82.1374 25.7613 82.2756C26.2981 82.4137 26.6222 82.9635 26.4837 83.5027C26.225 84.5134 26.0941 85.5859 26.0941 86.6923C26.0941 87.271 26.1297 87.8682 26.2009 88.4682C26.2663 89.0209 25.8729 89.5224 25.3227 89.5871C25.2823 89.592 25.2429 89.5949 25.2035 89.5949H25.2025ZM17.8636 89.0943C17.5933 89.0943 17.324 88.9852 17.1258 88.7697C15.8937 87.4266 14.7308 85.9908 13.6718 84.5008C13.3496 84.0477 13.4535 83.4186 13.9055 83.0949C14.3576 82.7712 14.9828 82.8756 15.305 83.3297C16.3159 84.7511 17.425 86.1212 18.6023 87.4034C18.9774 87.8121 18.9524 88.4499 18.5446 88.8277C18.3512 89.0064 18.1079 89.0943 17.8645 89.0943H17.8636ZM46.016 86.6488C46.0026 86.6488 45.9891 86.6488 45.9747 86.6478C45.4207 86.6256 44.9907 86.157 45.0119 85.6004C45.0167 85.4854 45.0186 85.3695 45.0186 85.2545C45.0186 85.0506 45.0119 84.8448 44.9984 84.638C44.9147 83.4003 44.5665 82.0958 43.9904 80.8648C43.7547 80.3605 43.9702 79.7604 44.4713 79.5237C44.9734 79.2889 45.5697 79.5034 45.8064 80.0068C46.4874 81.462 46.9 83.0157 47.001 84.5018C47.0183 84.7549 47.026 85.0052 47.026 85.2545C47.026 85.3975 47.0231 85.5395 47.0183 85.6816C46.9962 86.2236 46.5518 86.6488 46.016 86.6488ZM11.6654 80.3585C11.3057 80.3585 10.9594 80.1643 10.7786 79.8232C10.01 78.369 9.35502 76.9032 8.83081 75.4674C8.74328 75.2287 8.6596 74.9882 8.57784 74.7476C8.40182 74.22 8.68461 73.6489 9.20978 73.4712C9.73976 73.2943 10.3034 73.5784 10.4813 74.106C10.5554 74.3292 10.6343 74.5524 10.7151 74.7736C11.2075 76.1245 11.8251 77.5052 12.5513 78.8783C12.811 79.3701 12.6253 79.9798 12.1357 80.2407C11.9857 80.3209 11.8251 80.3585 11.6664 80.3585H11.6654ZM27.838 79.4532C27.6312 79.4532 27.4225 79.3894 27.2436 79.2561C26.7973 78.9256 26.702 78.2946 27.031 77.8463C28.2583 76.1728 29.7299 74.8336 31.2862 73.9746C31.772 73.7069 32.3808 73.8837 32.6492 74.3717C32.9156 74.8596 32.7386 75.4722 32.2529 75.7409C30.9496 76.4607 29.7021 77.6018 28.6459 79.0425C28.4497 79.3102 28.1458 79.4522 27.838 79.4522V79.4532ZM41.6925 77.1854C41.4617 77.1854 41.2299 77.1052 41.0404 76.9429C39.7371 75.8211 38.2645 75.1099 36.7813 74.8857C36.233 74.8026 35.856 74.2896 35.9397 73.7388C36.0214 73.189 36.5379 72.8083 37.0814 72.8924C38.9368 73.1735 40.7576 74.0441 42.3466 75.4123C42.7669 75.7737 42.816 76.4105 42.4562 76.8337C42.2571 77.0665 41.9763 77.1864 41.6935 77.1864L41.6925 77.1854ZM8.26524 70.2178C7.77854 70.2178 7.35148 69.8613 7.27453 69.3627C7.01483 67.6631 6.88306 65.9055 6.88306 64.1363L6.88498 63.8464C6.88979 63.2927 7.33801 62.8463 7.88819 62.8463H7.89589C8.44992 62.8502 8.89525 63.3053 8.89141 63.8619L8.88948 64.1363C8.88948 65.803 9.01356 67.4582 9.25787 69.0564C9.34251 69.6062 8.96547 70.1212 8.41914 70.2052C8.3672 70.213 8.31526 70.2168 8.26524 70.2168V70.2178ZM8.32391 59.5089C8.27293 59.5089 8.22196 59.5051 8.17098 59.4973C7.62272 59.4133 7.2476 58.8983 7.33128 58.3485C7.60156 56.5793 7.99688 54.7724 8.50859 52.9781C8.66152 52.4428 9.21747 52.1336 9.74938 52.2863C10.2822 52.4399 10.59 52.9974 10.4371 53.5327C9.94848 55.2449 9.57047 56.9677 9.31366 58.6538C9.23767 59.1524 8.81061 59.5089 8.32295 59.5089H8.32391ZM11.2403 49.1943C11.1123 49.1943 10.9825 49.1692 10.8574 49.1179C10.3457 48.9054 10.1014 48.315 10.314 47.801C10.995 46.1487 11.7837 44.4848 12.6561 42.8567C12.9187 42.3668 13.5256 42.1832 14.0152 42.448C14.5029 42.7118 14.6846 43.3234 14.4221 43.8133C13.5814 45.3805 12.8225 46.9825 12.1675 48.572C12.0078 48.9604 11.6336 49.1943 11.2393 49.1943H11.2403ZM16.2938 39.7367C16.1034 39.7367 15.91 39.6826 15.7388 39.5676C15.2771 39.2594 15.1521 38.6342 15.4589 38.1704C16.4477 36.6756 17.525 35.1905 18.6609 33.7576C19.0053 33.3218 19.6363 33.2503 20.071 33.5972C20.5048 33.9441 20.576 34.5779 20.2307 35.0137C19.1313 36.4022 18.0877 37.8399 17.1297 39.2864C16.9363 39.5782 16.618 39.7367 16.2938 39.7367ZM22.9412 31.3265C22.6959 31.3265 22.4497 31.2366 22.2564 31.055C21.8514 30.6743 21.8303 30.0366 22.2083 29.6298C23.1114 28.6597 24.0637 27.6925 25.0409 26.7552C25.441 26.3716 26.0759 26.3842 26.4597 26.7881C26.8425 27.19 26.828 27.8287 26.4269 28.2133C25.4766 29.1244 24.5513 30.0646 23.6741 31.0076C23.4769 31.2202 23.2086 31.3275 22.9412 31.3275V31.3265Z" fill="#F4B545"/>
<path opacity="0.1" d="M76.3105 7.29411L0 4.2688L15.6974 21.2032L11.5932 46.6096L29.475 36.035L37.0833 44.1959L76.3105 7.29411Z" fill="#232323"/>
<path d="M12.5405 43.5853L18.5348 6.4728L77.2569 4.2688L12.5405 43.5853Z" fill="#08225D"/>
<path d="M16.7506 18.2929C17.0623 18.1982 77.2569 4.26884 77.2569 4.26884L0.946411 1.24353L16.7506 18.2919V18.2929Z" fill="#4285F4"/>
<path d="M22.1148 24.1L12.5405 43.5852L42.1791 26.0576L22.1148 24.1Z" fill="#08225D"/>
<path d="M22.1149 24.1L38.0297 41.1706L77.2569 4.2688L22.1149 24.1Z" fill="#4285F4"/>
<path d="M131.547 2.39628L135.792 0.153626C136.754 -0.354618 137.879 0.465723 137.695 1.54212L136.884 6.29121C136.811 6.71829 136.952 7.15406 137.261 7.45746L140.696 10.821C141.474 11.5833 141.045 12.9109 139.97 13.0675L135.223 13.7603C134.796 13.8231 134.427 14.0917 134.236 14.4811L132.113 18.8021C131.632 19.7809 130.243 19.7809 129.762 18.8021L127.639 14.4811C127.447 14.0927 127.079 13.8231 126.652 13.7603L121.905 13.0675C120.83 12.9109 120.4 11.5824 121.179 10.821L124.614 7.45746C124.923 7.15503 125.064 6.71925 124.991 6.29121L124.18 1.54212C123.996 0.465723 125.121 -0.354618 126.083 0.153626L130.328 2.39628C130.71 2.59822 131.167 2.59822 131.549 2.39628H131.547Z" fill="#63A4E5"/>
</g>
<defs>
<clipPath id="clip0_1_882">
<rect width="250" height="233" fill="white"/>
</clipPath>
</defs>
</svg>
