<svg width="24" height="24" viewBox="0 0 24 24" fill="none" xmlns="http://www.w3.org/2000/svg">
<g clip-path="url(#clip0_1_2302)">
<path d="M14.0155 11.6719C14.6965 12.2634 15.0826 12.9739 15.1801 13.8754C15.2175 14.8328 14.9031 15.6513 14.253 16.3587C14.1074 16.5007 13.9493 16.6204 13.7811 16.7344C13.9145 16.84 14.0483 16.9187 14.2001 16.9951C14.8983 17.3717 15.4438 17.9113 15.8905 18.5625C15.9164 18.5295 15.9424 18.4964 15.9691 18.4624C16.4355 17.8877 16.9226 17.4174 17.578 17.0625C17.5316 17.0267 17.4852 16.991 17.4374 16.9541C16.9733 16.5539 16.6125 15.9436 16.5468 15.3281C16.4995 14.5296 16.6517 13.8469 17.162 13.207C17.6957 12.641 18.407 12.3391 19.1776 12.3106C19.7834 12.3227 20.315 12.4969 20.8124 12.8438C20.8591 12.8762 20.8591 12.8762 20.9067 12.9093C21.3717 13.2708 21.7228 13.877 21.8305 14.4547C21.9158 15.2541 21.7765 15.9403 21.3009 16.6031C21.156 16.7789 20.9912 16.922 20.8124 17.0625C20.9593 17.1849 21.1115 17.2949 21.2694 17.4024C22.2428 18.0849 22.7998 19.0421 23.0155 20.2031C23.0597 20.4961 23.0706 20.7822 23.0719 21.0782C23.0722 21.125 23.0724 21.1717 23.0727 21.2199C23.0732 21.3182 23.0735 21.4165 23.0737 21.5148C23.0741 21.6651 23.0756 21.8153 23.077 21.9656C23.0773 22.0614 23.0776 22.1572 23.0778 22.253C23.0784 22.2978 23.0789 22.3426 23.0795 22.3887C23.0788 22.6191 23.0763 22.7838 22.9218 22.9688C22.8028 23.0283 22.7204 23.0214 22.5872 23.0213C22.5107 23.0214 22.5107 23.0214 22.4326 23.0215C22.3764 23.0213 22.3202 23.0211 22.2623 23.021C22.2033 23.021 22.1443 23.021 22.0835 23.021C21.9215 23.021 21.7595 23.0207 21.5975 23.0204C21.4282 23.0201 21.259 23.0201 21.0898 23.02C20.7692 23.0199 20.4487 23.0195 20.1281 23.019C19.7632 23.0185 19.3983 23.0182 19.0334 23.018C18.2826 23.0175 17.5319 23.0167 16.7811 23.0156C16.7836 23.0877 16.7836 23.0877 16.7861 23.1612C16.7874 23.225 16.7887 23.2888 16.7899 23.3526C16.7917 23.3999 16.7917 23.3999 16.7935 23.4482C16.7966 23.6577 16.7697 23.787 16.6405 23.9531C16.4975 24.0246 16.3484 24.0069 16.1915 24.0069C16.1359 24.0072 16.1359 24.0072 16.0791 24.0074C15.9542 24.008 15.8293 24.0081 15.7043 24.0083C15.615 24.0086 15.5257 24.0089 15.4364 24.0092C15.1933 24.0101 14.9502 24.0106 14.7071 24.0109C14.5554 24.0112 14.4036 24.0115 14.2519 24.0118C13.7775 24.0127 13.303 24.0133 12.8286 24.0137C12.2802 24.0142 11.7319 24.0154 11.1836 24.0173C10.7602 24.0187 10.3368 24.0194 9.91336 24.0196C9.66027 24.0197 9.40719 24.0201 9.1541 24.0213C8.91609 24.0224 8.6781 24.0226 8.4401 24.0221C8.35264 24.0221 8.26519 24.0224 8.17774 24.023C8.05853 24.0238 7.93938 24.0235 7.82017 24.0229C7.76801 24.0236 7.76801 24.0236 7.71479 24.0244C7.55275 24.0224 7.46849 24.0122 7.33925 23.9107C7.20288 23.7291 7.21308 23.5809 7.21571 23.3613C7.21592 23.3282 7.21613 23.2951 7.21635 23.261C7.21691 23.1792 7.21775 23.0974 7.21864 23.0156C7.18765 23.0158 7.15666 23.0159 7.12473 23.016C6.37086 23.0191 5.61699 23.0215 4.86311 23.0229C4.49854 23.0236 4.13398 23.0246 3.76941 23.0262C3.45168 23.0276 3.13395 23.0286 2.81622 23.0289C2.64796 23.0291 2.4797 23.0295 2.31145 23.0305C2.12367 23.0316 1.93591 23.0317 1.74814 23.0316C1.69227 23.0321 1.6364 23.0326 1.57884 23.0331C1.5277 23.0329 1.47656 23.0327 1.42388 23.0325C1.37946 23.0327 1.33504 23.0328 1.28927 23.0329C1.14898 23.0123 1.08574 22.9729 0.984266 22.875C0.941146 22.7457 0.931039 22.6667 0.929838 22.5331C0.929162 22.4722 0.929162 22.4722 0.928473 22.4101C0.928274 22.3662 0.928075 22.3223 0.927869 22.277C0.927602 22.2312 0.927335 22.1854 0.92706 22.1383C0.926616 22.041 0.92631 21.9436 0.92613 21.8463C0.925681 21.7001 0.92423 21.554 0.922743 21.4078C0.91627 20.1858 1.14065 19.0375 1.96864 18.0938C1.99638 18.0588 2.02411 18.0238 2.05269 17.9877C2.3212 17.6597 2.65297 17.4398 2.99989 17.2031C3.06273 17.1567 3.12541 17.1101 3.18739 17.0625C3.12938 17.019 3.12938 17.019 3.0702 16.9746C2.59201 16.5709 2.21674 15.9591 2.15614 15.3281C2.1096 14.5293 2.26071 13.8473 2.77138 13.207C3.30503 12.641 4.01634 12.3391 4.787 12.3106C5.51504 12.3251 6.17595 12.5817 6.71217 13.0812C7.25971 13.6679 7.48557 14.352 7.46437 15.141C7.4237 15.8114 7.12613 16.4496 6.623 16.8997C6.55711 16.9554 6.48961 17.0092 6.42177 17.0625C6.45071 17.079 6.47965 17.0955 6.50947 17.1125C7.13717 17.4784 7.68738 17.9314 8.06239 18.5625C8.19615 18.4335 8.31229 18.2995 8.42567 18.1524C8.8736 17.5912 9.44774 17.094 10.1249 16.8281C10.1558 16.8281 10.1868 16.8281 10.2186 16.8281C10.2186 16.7972 10.2186 16.7663 10.2186 16.7344C10.1722 16.7213 10.1722 16.7213 10.1249 16.708C9.49485 16.4061 9.10097 15.6879 8.8578 15.0634C8.60834 14.2572 8.73128 13.3707 9.09657 12.627C9.53321 11.8596 10.2554 11.3101 11.1034 11.0684C12.1256 10.8251 13.1749 11.0345 14.0155 11.6719ZM10.1492 12.5654C9.72454 13.107 9.51398 13.7039 9.56239 14.3906C9.66233 15.0394 9.97109 15.5868 10.4999 15.9844C10.8868 16.2356 11.3019 16.4187 11.7655 16.4531C11.8245 16.458 11.8835 16.4628 11.9442 16.4678C12.5797 16.4444 13.2377 16.2102 13.6874 15.75C14.1742 15.1687 14.3912 14.5831 14.3436 13.8281C14.235 13.184 13.9071 12.6331 13.3818 12.2397C12.3591 11.6003 11.0042 11.6335 10.1492 12.5654ZM3.38661 13.8223C3.02354 14.255 2.96577 14.6871 2.99108 15.2366C3.03176 15.6592 3.30421 16.0359 3.59993 16.3246C4.07634 16.702 4.56857 16.7762 5.15614 16.7344C5.71091 16.6139 6.11835 16.2655 6.43367 15.8048C6.6834 15.367 6.68839 14.8791 6.56752 14.4014C6.49089 14.1783 6.38579 14.0077 6.23427 13.8281C6.2107 13.7989 6.18713 13.7696 6.16286 13.7395C5.8725 13.4137 5.43742 13.1923 5.00215 13.1607C4.32711 13.1475 3.84854 13.3232 3.38661 13.8223ZM17.7538 13.8369C17.4776 14.1598 17.3379 14.5748 17.3436 15C17.3873 15.5299 17.5852 15.9449 17.9713 16.3103C18.4601 16.6937 18.9434 16.7773 19.5468 16.7344C20.0652 16.6218 20.4547 16.3118 20.7655 15.8906C21.0289 15.4517 21.0871 14.9326 20.9646 14.4346C20.7458 13.8719 20.4012 13.5312 19.8641 13.2733C19.0812 12.9443 18.3099 13.2634 17.7538 13.8369ZM9.14052 18.5625C7.9739 19.9398 8.06239 21.3947 8.06239 23.2031C10.6611 23.2031 13.2599 23.2031 15.9374 23.2031C15.9664 20.5274 15.9664 20.5274 14.6718 18.375C13.9373 17.6664 13.0328 17.2683 12.0116 17.2354C10.8959 17.2601 9.89492 17.742 9.14052 18.5625ZM2.60402 18.5979C1.73738 19.701 1.78114 20.7949 1.78114 22.2188C3.57552 22.2188 5.36989 22.2188 7.21864 22.2188C7.24958 21.7392 7.28052 21.2597 7.31239 20.7656C7.44953 20.0313 7.44953 20.0313 7.5995 19.6904C7.6471 19.5582 7.64419 19.5108 7.59804 19.3753C7.44547 19.0803 7.24779 18.8134 7.03114 18.5625C7.00383 18.5307 6.97652 18.4989 6.94838 18.4662C6.43219 17.9088 5.71576 17.5831 4.96006 17.5529C4.03925 17.5439 3.21839 17.9059 2.60402 18.5979ZM16.828 18.7031C16.6888 18.8978 16.5659 19.1014 16.453 19.3125C16.432 19.3509 16.4111 19.3892 16.3895 19.4288C16.3463 19.5976 16.3973 19.6911 16.4618 19.8516C16.5678 20.1393 16.6324 20.4212 16.6757 20.7246C16.6811 20.7605 16.6865 20.7965 16.692 20.8335C16.7532 21.2944 16.7589 21.752 16.7811 22.2188C18.5755 22.2188 20.3699 22.2188 22.2186 22.2188C22.2854 20.7049 22.2854 20.7049 21.8583 19.2979C21.8343 19.2517 21.8343 19.2517 21.8097 19.2046C21.3865 18.4199 20.7045 17.9065 19.8661 17.6279C18.7139 17.3585 17.5701 17.798 16.828 18.7031Z" fill="white"/>
<path d="M14.8126 0.84374C14.9765 0.977061 15.1302 1.11811 15.2813 1.26561C15.321 1.30332 15.3606 1.34102 15.4014 1.37987C15.458 1.43933 15.458 1.43933 15.5157 1.49999C15.5463 1.53087 15.577 1.56174 15.6085 1.59356C16.4916 2.51914 16.8618 3.73955 16.8502 4.9993C16.8117 6.3409 16.302 7.43945 15.3751 8.39061C15.335 8.43584 15.335 8.43584 15.2941 8.48198C14.5672 9.28156 13.3871 9.71888 12.3311 9.77086C11.0171 9.8057 9.84364 9.48497 8.84479 8.60155C8.77116 8.53165 8.6979 8.46135 8.62506 8.39061C8.58953 8.35853 8.554 8.32644 8.5174 8.29339C7.67881 7.51119 7.20007 6.29071 7.15619 5.15752C7.13853 3.97603 7.37269 2.87569 8.10944 1.92186C8.12871 1.89687 8.14799 1.87188 8.16785 1.84613C9.75852 -0.189998 12.6862 -0.616083 14.8126 0.84374ZM8.85944 2.29686C8.42024 2.86488 8.14368 3.51286 8.01569 4.21874C8.00953 4.25227 8.00336 4.28581 7.99701 4.32036C7.83778 5.36398 8.15153 6.44925 8.76148 7.29619C8.85319 7.41453 8.94818 7.52811 9.04694 7.64061C9.07812 7.67627 9.1093 7.71192 9.14142 7.74865C9.81892 8.47382 10.8119 8.90794 11.7965 8.96264C12.9992 8.9773 14.027 8.54634 14.8917 7.71679C15.5622 7.02392 15.9883 6.07642 16.0313 5.10936C16.0337 5.07244 16.0361 5.03553 16.0386 4.99749C16.0748 3.99037 15.7116 2.93196 15.0294 2.18847C14.943 2.09781 14.8548 2.00987 14.7657 1.92186C14.7076 1.86386 14.7076 1.86386 14.6483 1.80468C13.9071 1.1003 12.915 0.770036 11.9022 0.777101C10.7048 0.815761 9.6231 1.38289 8.85944 2.29686Z" fill="white"/>
<path d="M11.5264 1.67635C11.5632 1.67597 11.5999 1.67559 11.6378 1.6752C11.7157 1.67455 11.7936 1.67405 11.8715 1.67368C11.9904 1.67287 12.1091 1.67082 12.228 1.66875C12.3037 1.66827 12.3794 1.66787 12.4551 1.66756C12.4905 1.66674 12.5259 1.66592 12.5624 1.66507C12.7368 1.66578 12.8343 1.68139 12.9824 1.77665C13.1589 1.95785 13.1312 2.12743 13.1297 2.36757C13.1296 2.40697 13.1295 2.44638 13.1295 2.48697C13.1292 2.61307 13.1286 2.73916 13.128 2.86525C13.1278 2.95064 13.1276 3.03603 13.1274 3.12141C13.1269 3.33095 13.1261 3.54048 13.1251 3.75002C13.1764 3.74879 13.2277 3.74756 13.2806 3.7463C13.4715 3.74204 13.6623 3.73936 13.8532 3.73714C13.9358 3.73596 14.0183 3.73437 14.1008 3.73233C14.2196 3.72948 14.3383 3.72816 14.4572 3.72713C14.5123 3.72531 14.5123 3.72531 14.5685 3.72346C14.7551 3.72337 14.8405 3.73738 14.9999 3.84336C15.125 4.03119 15.1278 4.16756 15.125 4.38869C15.1252 4.42734 15.1254 4.46599 15.1257 4.50581C15.1258 4.58728 15.1254 4.66876 15.1244 4.75023C15.1231 4.87466 15.1244 4.99888 15.1259 5.12331C15.1257 5.20265 15.1254 5.282 15.125 5.36134C15.1254 5.39836 15.1259 5.43538 15.1264 5.47352C15.1225 5.65981 15.1057 5.74787 14.9999 5.90667C14.8118 6.03172 14.678 6.03018 14.4572 6.0229C14.3999 6.02241 14.3999 6.02241 14.3415 6.0219C14.2202 6.02059 14.0989 6.01765 13.9776 6.01466C13.8951 6.01349 13.8127 6.01242 13.7302 6.01146C13.5284 6.00888 13.3268 6.00484 13.1251 6.00002C13.1266 6.07911 13.1266 6.07911 13.1281 6.15981C13.1315 6.35592 13.1336 6.55204 13.1354 6.74817C13.1363 6.83297 13.1376 6.91776 13.1392 7.00255C13.1415 7.12462 13.1426 7.24664 13.1434 7.36873C13.1444 7.40648 13.1453 7.44423 13.1463 7.48313C13.1464 7.67016 13.139 7.7594 13.0361 7.92131C12.8614 8.08868 12.7045 8.07145 12.4738 8.07368C12.437 8.07406 12.4003 8.07444 12.3624 8.07483C12.2845 8.07548 12.2066 8.07598 12.1287 8.07635C12.0098 8.07716 11.891 8.07921 11.7722 8.08128C11.6965 8.08176 11.6208 8.08216 11.5451 8.08247C11.5097 8.08329 11.4743 8.08412 11.4378 8.08496C11.2634 8.08425 11.1659 8.06864 11.0178 7.97338C10.8413 7.79218 10.869 7.6226 10.8705 7.38246C10.8706 7.34306 10.8706 7.30365 10.8707 7.26305C10.871 7.13696 10.8716 7.01087 10.8722 6.88478C10.8724 6.79939 10.8726 6.714 10.8728 6.62862C10.8733 6.41908 10.8741 6.20955 10.8751 6.00002C10.8238 6.00124 10.7725 6.00247 10.7196 6.00373C10.5287 6.00799 10.3379 6.01067 10.147 6.01289C10.0644 6.01407 9.98192 6.01566 9.89941 6.0177C9.78059 6.02055 9.66184 6.02187 9.543 6.0229C9.48791 6.02472 9.48791 6.02472 9.43171 6.02657C9.24505 6.02666 9.15971 6.01265 9.00034 5.90667C8.87516 5.71884 8.87238 5.58247 8.87522 5.36134C8.87499 5.32269 8.87477 5.28404 8.87454 5.24422C8.87438 5.16275 8.87481 5.08127 8.87579 4.9998C8.87704 4.87537 8.8758 4.75115 8.8743 4.62672C8.87446 4.54738 8.87476 4.46803 8.87522 4.38869C8.87474 4.35167 8.87427 4.31465 8.87378 4.27651C8.87772 4.09022 8.8945 4.00216 9.00034 3.84336C9.18841 3.71831 9.3222 3.71985 9.543 3.72713C9.58117 3.72746 9.61933 3.72779 9.65865 3.72813C9.78 3.72944 9.90124 3.73238 10.0226 3.73537C10.105 3.73654 10.1875 3.73761 10.27 3.73857C10.4718 3.74115 10.6734 3.74519 10.8751 3.75002C10.8741 3.69728 10.8731 3.64455 10.8721 3.59022C10.8687 3.39411 10.8666 3.19799 10.8648 3.00186C10.8639 2.91706 10.8626 2.83227 10.8609 2.74748C10.8587 2.62541 10.8576 2.50339 10.8568 2.3813C10.8558 2.34355 10.8548 2.3058 10.8539 2.2669C10.8538 2.07987 10.8612 1.99063 10.9641 1.82872C11.1388 1.66135 11.2957 1.67858 11.5264 1.67635ZM11.7188 2.53127C11.7182 2.58116 11.7175 2.63105 11.7168 2.68245C11.714 2.86811 11.7104 3.05374 11.7065 3.23937C11.705 3.31961 11.7037 3.39986 11.7026 3.48011C11.701 3.59567 11.6986 3.71119 11.696 3.82674C11.6955 3.88029 11.6955 3.88029 11.695 3.93493C11.6887 4.16634 11.6514 4.33306 11.4845 4.50002C11.3528 4.50752 11.2221 4.51218 11.0902 4.51485C11.031 4.51631 11.031 4.51631 10.9706 4.5178C10.8441 4.52087 10.7175 4.52363 10.5909 4.52638C10.5053 4.52841 10.4197 4.53045 10.3341 4.53252C10.1238 4.53755 9.91352 4.54229 9.70322 4.54689C9.70322 4.76345 9.70322 4.98002 9.70322 5.20314C9.78305 5.20417 9.78305 5.20417 9.8645 5.20521C10.0619 5.20793 10.2592 5.21155 10.4565 5.21544C10.542 5.217 10.6274 5.21832 10.7128 5.21938C10.8356 5.22095 10.9583 5.2234 11.0811 5.22603C11.1193 5.22633 11.1576 5.22663 11.197 5.22694C11.4643 5.23389 11.4643 5.23389 11.5631 5.31281C11.7039 5.48958 11.6822 5.69933 11.6868 5.91414C11.6878 5.9514 11.6887 5.98865 11.6898 6.02704C11.6928 6.14596 11.6956 6.26488 11.6983 6.3838C11.7004 6.46446 11.7024 6.54512 11.7045 6.62578C11.7095 6.82344 11.7142 7.0211 11.7188 7.21877C11.9045 7.21877 12.0901 7.21877 12.2813 7.21877C12.282 7.16887 12.2827 7.11898 12.2834 7.06758C12.2861 6.88192 12.2898 6.6963 12.2936 6.51066C12.2952 6.43042 12.2965 6.35017 12.2976 6.26992C12.2992 6.15436 12.3016 6.03884 12.3042 5.92329C12.3045 5.88759 12.3048 5.85189 12.3051 5.8151C12.3115 5.58369 12.3488 5.41697 12.5157 5.25002C12.6474 5.24251 12.7781 5.23785 12.9099 5.23518C12.9692 5.23372 12.9692 5.23372 13.0296 5.23223C13.1561 5.22916 13.2827 5.2264 13.4093 5.22365C13.4949 5.22162 13.5805 5.21958 13.6661 5.21751C13.8764 5.21248 14.0867 5.20774 14.297 5.20314C14.297 4.98658 14.297 4.77002 14.297 4.54689C14.2171 4.54586 14.2171 4.54586 14.1357 4.54482C13.9383 4.5421 13.741 4.53848 13.5437 4.53459C13.4582 4.53303 13.3728 4.53171 13.2874 4.53065C13.1646 4.52908 13.0419 4.52663 12.9191 4.524C12.8809 4.5237 12.8426 4.5234 12.8032 4.52309C12.5359 4.51614 12.5359 4.51614 12.4371 4.43722C12.2963 4.26045 12.318 4.0507 12.3134 3.83589C12.3124 3.79863 12.3114 3.76138 12.3104 3.72299C12.3074 3.60407 12.3046 3.48515 12.3019 3.36623C12.2998 3.28557 12.2978 3.20491 12.2957 3.12425C12.2907 2.92659 12.286 2.72893 12.2813 2.53127C12.0957 2.53127 11.9101 2.53127 11.7188 2.53127Z" fill="white"/>
</g>
<defs>
<clipPath id="clip0_1_2302">
<rect width="24" height="24" fill="white"/>
</clipPath>
</defs>
</svg>
