<svg width="34" height="33" viewBox="0 0 34 33" fill="none" xmlns="http://www.w3.org/2000/svg">
<path opacity="0.6" fill-rule="evenodd" clip-rule="evenodd" d="M18.0702 23.9999C18.2839 22.2354 19.0791 20.5923 20.3302 19.3299V19.3399C21.6047 18.0574 23.276 17.2445 25.0716 17.0336C26.8673 16.8227 28.6814 17.2262 30.2184 18.1785C31.7553 19.1307 32.9243 20.5755 33.5349 22.2773C34.1454 23.9791 34.1615 25.8376 33.5805 27.5497C32.9995 29.2618 31.8557 30.7266 30.3356 31.7054C28.8154 32.6841 27.0085 33.1191 25.2094 32.9393C23.4104 32.7595 21.7253 31.9757 20.4288 30.7155C19.1323 29.4553 18.301 27.7931 18.0702 25.9999H3.61024C2.65098 25.9946 1.7328 25.6098 1.05637 24.9296C0.379928 24.2494 0.000229581 23.3292 0.000244141 22.3699V3.60988C0.00549597 2.65407 0.38752 1.7389 1.06339 1.06303C1.73926 0.387157 2.65443 0.00513212 3.61024 -0.000119707H26.3702C26.8473 -0.00407518 27.3204 0.0863076 27.7625 0.265832C28.2045 0.445357 28.6066 0.710483 28.9458 1.04597C29.285 1.38145 29.5546 1.78067 29.739 2.22068C29.9234 2.66069 30.0189 3.1328 30.0202 3.60988V12.9999C30.0202 13.2651 29.9149 13.5195 29.7274 13.707C29.5398 13.8945 29.2855 13.9999 29.0202 13.9999C28.755 13.9999 28.5007 13.8945 28.3131 13.707C28.1256 13.5195 28.0202 13.2651 28.0202 12.9999V12.3299L27.4802 11.7999C27.038 11.448 26.5369 11.1771 26.0002 10.9999C25.1478 10.7341 24.2386 10.7082 23.3725 10.9252C22.5063 11.1422 21.7167 11.5936 21.0902 12.2299L15.9002 17.3299C15.5754 17.5635 15.1854 17.6891 14.7852 17.6891C14.3851 17.6891 13.9951 17.5635 13.6702 17.3299L13.5502 17.2299L11.9402 15.6499C11.4183 15.2448 10.7675 15.0419 10.1079 15.0787C9.44816 15.1154 8.82397 15.3893 8.35024 15.8499L2.00024 22.1299V22.3699C2.00021 22.7987 2.1692 23.2103 2.47057 23.5154C2.77194 23.8206 3.18142 23.9946 3.61024 23.9999H18.0702ZM26.3702 1.99988H3.61024C3.18405 2.0025 2.77607 2.17297 2.4747 2.47434C2.17333 2.7757 2.00287 3.18369 2.00024 3.60988V19.3199L6.93024 14.4299C7.8192 13.5732 9.00568 13.0945 10.2402 13.0945C11.4748 13.0945 12.6613 13.5732 13.5502 14.4299L14.2902 15.1499L14.7602 15.6099L19.6902 10.7599C20.5823 9.88462 21.6967 9.27006 22.913 8.98274C24.1292 8.69543 25.4009 8.74631 26.5902 9.12988C27.086 9.29016 27.5596 9.51188 28.0002 9.78988V3.60988C27.9989 3.39714 27.9557 3.18674 27.8731 2.99069C27.7905 2.79464 27.6701 2.61679 27.5187 2.46729C27.3673 2.31778 27.188 2.19956 26.991 2.11936C26.7939 2.03916 26.583 1.99856 26.3702 1.99988ZM27.1581 30.8701C28.3218 30.6391 29.3909 30.0683 30.2302 29.2299C30.7881 28.6726 31.2307 28.0109 31.5326 27.2825C31.8346 26.5541 31.99 25.7734 31.99 24.9849C31.99 24.1964 31.8346 23.4156 31.5326 22.6872C31.2307 21.9588 30.7881 21.2971 30.2302 20.7399C29.3909 19.9014 28.3218 19.3307 27.1581 19.0997C25.9943 18.8687 24.7883 18.9879 23.6923 19.4422C22.5964 19.8966 21.6597 20.6656 21.0007 21.6522C20.3417 22.6387 19.99 23.7985 19.99 24.9849C19.99 26.1713 20.3417 27.3311 21.0007 28.3176C21.6597 29.3042 22.5964 30.0732 23.6923 30.5275C24.7883 30.9818 25.9943 31.1011 27.1581 30.8701ZM9.82038 10.7401C10.5533 10.742 11.2704 10.5268 11.8811 10.1217C12.4919 9.71655 12.9689 9.13958 13.2521 8.46359C13.5353 7.7876 13.6119 7.04288 13.4723 6.32339C13.3327 5.60389 12.9831 4.94187 12.4677 4.42085C11.9522 3.89982 11.294 3.54314 10.5761 3.39581C9.85811 3.24847 9.1126 3.31709 8.43361 3.59299C7.75461 3.8689 7.17255 4.33974 6.76086 4.9461C6.34917 5.55246 6.1263 6.26717 6.12038 7.00006C6.1177 7.98587 6.50539 8.93265 7.19871 9.63347C7.89203 10.3343 8.83459 10.7321 9.82038 10.7401ZM9.82038 5.32006C10.1594 5.31808 10.4914 5.41694 10.7741 5.60407C11.0569 5.79121 11.2776 6.05817 11.4083 6.37104C11.5389 6.6839 11.5736 7.02855 11.508 7.36119C11.4423 7.69382 11.2792 7.99943 11.0395 8.23918C10.7998 8.47893 10.4941 8.64199 10.1615 8.70765C9.82887 8.77332 9.48422 8.73861 9.17135 8.60795C8.85849 8.47728 8.59153 8.25656 8.40439 7.97383C8.21726 7.69109 8.1184 7.35911 8.12037 7.02006C8.123 6.57 8.30295 6.13912 8.62119 5.82087C8.93944 5.50263 9.37032 5.32268 9.82038 5.32006ZM26.7999 21.4198C26.7089 21.2919 26.589 21.1872 26.4501 21.1143C26.3111 21.0413 26.1569 21.0021 25.9999 20.9998C25.8628 21.0002 25.7272 21.0288 25.6017 21.0839C25.4761 21.1389 25.3632 21.2192 25.2699 21.3198L21.9999 24.5298C21.8984 24.6234 21.8174 24.737 21.762 24.8635C21.7066 24.99 21.678 25.1267 21.678 25.2648C21.678 25.4029 21.7066 25.5395 21.762 25.666C21.8174 25.7925 21.8984 25.9061 21.9999 25.9998C22.0929 26.0935 22.2035 26.1679 22.3253 26.2186C22.4472 26.2694 22.5779 26.2956 22.7099 26.2956C22.8419 26.2956 22.9726 26.2694 23.0945 26.2186C23.2163 26.1679 23.327 26.0935 23.4199 25.9998L24.9999 24.4198V27.9998C24.9999 28.265 25.1053 28.5193 25.2928 28.7069C25.4803 28.8944 25.7347 28.9998 25.9999 28.9998C26.2651 28.9998 26.5195 28.8944 26.707 28.7069C26.8946 28.5193 26.9999 28.265 26.9999 27.9998V24.4498L28.4899 25.9398C28.6773 26.126 28.9307 26.2305 29.1949 26.2305C29.4591 26.2305 29.7126 26.126 29.8999 25.9398C29.9936 25.8468 30.068 25.7362 30.1188 25.6143C30.1696 25.4925 30.1957 25.3618 30.1957 25.2298C30.1957 25.0977 30.1696 24.967 30.1188 24.8452C30.068 24.7233 29.9936 24.6127 29.8999 24.5198L26.7999 21.4198Z" fill="#1B3664"/>
</svg>
